<svg width="199" height="20" viewBox="0 0 199 20" fill="none" xmlns="http://www.w3.org/2000/svg">
<path d="M181.163 11.2207V8.65468H159.934V15.378H158.492V19.8138H179.721V17.2478H161.297V15.378H180.497V12.8717H162.73V11.2207H181.163Z" fill="white"/>
<path d="M144.107 8.65468V12.7822H140.118V8.65468H137.312V15.388H135.91V19.8138H138.715V15.388H142.704V19.8138H145.509V15.388H146.912V8.65468H144.107Z" fill="white"/>
<path d="M195.647 13.2695H193.3V10.7632H195.647C196.344 10.7632 196.901 11.3301 196.901 12.0163C196.901 12.7125 196.334 13.2695 195.647 13.2695ZM195.647 8.66461H190.494V19.8039H193.3V15.368H195.647C197.498 15.368 199 13.8662 199 12.0163C199 10.1664 197.498 8.66461 195.647 8.66461Z" fill="white"/>
<path d="M37.3845 12.7821H33.3954V8.65466H33.3854H30.59H30.5801V12.7821H26.5909V8.65466H23.7856V15.3879H22.3829V19.8138H25.1783V15.3879H29.1774V19.8138H29.1874H31.9728H31.9828V15.3879H35.9819V19.8138H38.7773V15.3879H40.1899V8.65466H37.3845V12.7821Z" fill="white"/>
<path d="M4.34728 17.2379C4.98395 16.1737 5.33213 14.4829 5.33213 12.0561V11.2107H8.15737V17.2379H4.34728ZM10.9826 8.6348H2.72575V12.0462C2.72575 14.4829 2.17861 16.1637 1.5121 17.2279H0V19.8039H10.9826V8.6348Z" fill="white"/>
<path d="M52.6051 15.378H51.282V19.8138H59.5388V17.2478H54.0774V15.378H60.0661V12.8717H55.4104V11.2207H60.8619V8.65468H52.6051V15.378Z" fill="white"/>
<path d="M75.3562 17.2379C75.9929 16.1737 76.3411 14.4829 76.3411 12.0561V11.2107H79.1663V17.2379H75.3562ZM81.9916 8.6348H73.7347V12.0462C73.7347 14.4829 73.1876 16.1637 72.5211 17.2279H71.0189V19.8039H82.0015V8.6348H81.9916Z" fill="white"/>
<path d="M116.203 8.65468V15.6963H116.621L119.794 8.65468H123.395V19.8138H120.838V12.7623H120.411L117.237 19.8138H113.636V8.65468H116.203Z" fill="white"/>
<path d="M96.4061 14.642L97.2816 11.4096H97.9481L98.8036 14.642H96.4061ZM99.7586 8.65466H95.5208L92.2976 19.8039H95.0234L95.7894 16.9096H99.4005L100.186 19.8039H102.972L99.7586 8.65466Z" fill="white"/>
<path d="M119.695 1.82194C119.695 0.916881 118.958 0.190842 118.063 0.190842C117.158 0.190842 116.432 0.926827 116.432 1.82194C116.432 2.72701 117.158 3.45305 118.063 3.45305C118.968 3.45305 119.695 2.72701 119.695 1.82194Z" fill="#2D509F"/>
</svg>
