<svg width="47" height="60" viewBox="0 0 47 60" fill="none" xmlns="http://www.w3.org/2000/svg">
<path d="M0.599609 58.8L1.89961 48.2C1.89961 48.2 1.49961 41.9 8.79961 39.7C16.0996 37.5 17.5996 37.1 17.5996 37.1C17.5996 37.1 18.3996 39.5 23.4996 39.5C28.5996 39.5 29.0996 37 29.0996 37L38.1996 39.9C38.1996 39.9 43.8996 40.9 44.5996 46.6C45.2996 52.3 46.2996 59 46.2996 59L0.599609 58.8Z" stroke="#F4CA60" stroke-miterlimit="10"/>
<path d="M10.5994 16.6C9.2994 14.5 7.1994 0.900007 22.2994 1.30001C33.4994 -2.39999 40.8994 7.30001 35.7994 16.9C35.7994 16.9 24.8994 19.3 20.2994 12.8C20.2994 12.8 13.7994 18.4 10.5994 16.6Z" stroke="#F4CA60" stroke-miterlimit="10"/>
<path d="M10.5998 16.6C10.5998 16.6 9.2998 17.3 9.2998 20.5C9.2998 23.7 12.2998 23.9 12.2998 23.9C12.2998 23.9 14.2998 34.9 23.1998 34.9C23.1998 34.9 29.2998 36.8 34.4998 24.1C34.4998 24.1 37.7998 23.5 37.7998 19.9C37.7998 16.3 35.7998 16.8 35.7998 16.8" stroke="#F4CA60" stroke-miterlimit="10"/>
<path d="M18.2996 33.8L17.5996 37.1" stroke="#F4CA60" stroke-miterlimit="10"/>
<path d="M29.1998 37L28.2998 33.2" stroke="#F4CA60" stroke-miterlimit="10"/>
<path d="M22.199 21.4L21.499 25.9H23.299" stroke="#F4CA60" stroke-miterlimit="10"/>
<path d="M25.999 18.3H29.599" stroke="#F4CA60" stroke-miterlimit="10"/>
<path d="M16.3994 18.3H19.9994" stroke="#F4CA60" stroke-miterlimit="10"/>
<path d="M20.2998 29C20.2998 29 21.0998 30.3 22.9998 30.3C24.7998 30.3 25.7998 29 25.7998 29" stroke="#F4CA60" stroke-miterlimit="10"/>
<path d="M27.7996 22.3C28.4623 22.3 28.9996 21.7628 28.9996 21.1C28.9996 20.4373 28.4623 19.9 27.7996 19.9C27.1369 19.9 26.5996 20.4373 26.5996 21.1C26.5996 21.7628 27.1369 22.3 27.7996 22.3Z" fill="#F4CA60"/>
<path d="M18.199 22.3C18.8618 22.3 19.399 21.7628 19.399 21.1C19.399 20.4373 18.8618 19.9 18.199 19.9C17.5363 19.9 16.999 20.4373 16.999 21.1C16.999 21.7628 17.5363 22.3 18.199 22.3Z" fill="#F4CA60"/>
</svg>
