<svg width="55" height="101" viewBox="0 0 55 101" fill="none" xmlns="http://www.w3.org/2000/svg">
<path d="M0.885981 90.8571C2.66708 93.1917 4.60534 95.3967 6.9103 97.2385C6.96269 97.2904 7.04127 97.3423 7.09365 97.3942C7.11984 97.4201 7.11984 97.4201 7.14604 97.4461C7.17223 97.472 7.17223 97.472 7.19842 97.4979C7.22461 97.5239 7.25081 97.5498 7.277 97.5758C7.32939 97.6277 7.35558 97.6536 7.40796 97.7055C8.84856 98.9247 10.4463 99.9105 12.1226 100.792C12.306 100.896 12.4893 101 12.6989 100.974H12.7251C12.7513 100.974 12.7513 100.948 12.7775 100.948C12.8037 100.922 12.8299 100.896 12.856 100.87C12.856 100.844 12.8822 100.844 12.8822 100.818V100.792C12.5679 100.092 11.9131 99.7289 11.3631 99.2879C10.1844 98.354 8.84856 97.6017 7.6437 96.6678C7.19842 96.3047 7.11984 96.0193 7.38177 95.5264C9.18907 92.206 10.8392 88.8077 12.5417 85.4354C13.9038 82.7375 15.1872 80.0137 16.5754 77.3418C16.6802 77.1343 16.8373 76.9008 16.7588 76.6414V76.6154C16.7588 76.5895 16.7326 76.5895 16.7326 76.5636C16.7064 76.5376 16.6802 76.5117 16.6278 76.4857C16.6016 76.4857 16.6016 76.4857 16.5754 76.4857H16.5492C15.842 76.9267 15.3182 77.5493 14.9515 78.2757C12.1227 83.7752 9.4248 89.3525 6.70076 94.9298C6.41264 95.5524 6.28168 95.5783 5.75782 95.1114C4.99823 94.411 4.29103 93.6587 3.53144 92.9323C3.21713 92.621 3.24332 92.2838 3.40048 91.9206C3.79337 91.0386 4.16007 90.1307 4.55296 89.2487C5.86259 86.4471 7.17223 83.6455 8.50806 80.8438C10.2368 77.238 11.9655 73.6063 13.6418 69.9746C14.0609 69.0666 14.5062 68.1327 14.9253 67.2248C15.0824 66.9135 15.292 66.7319 15.6325 66.68C17.4922 66.2909 19.2733 65.6424 21.0282 64.9679C22.8355 64.2675 24.407 65.0198 25.9524 65.824C26.1881 65.9537 26.2143 66.2131 26.2405 66.4725C26.3191 67.8214 26.1357 69.1963 26.1096 70.5452C26.1096 70.7268 26.0048 70.8825 25.9 71.0641C25.5071 71.6348 25.7167 72.413 26.3453 72.4649C27.3668 72.5687 27.8645 73.3209 28.5455 73.8398C28.8074 74.0473 29.0169 74.3067 29.3836 74.3586C29.8027 74.4105 30.117 74.1251 29.9337 73.7879C29.5146 73.0356 29.8027 72.2833 29.8289 71.557C29.8813 70.5712 29.9599 69.5854 30.0385 68.5997C30.0646 68.3921 30.0123 68.1587 30.3528 68.0809C31.3743 67.8733 31.4791 67.6139 30.9028 66.7838C31.2171 66.8357 31.5314 66.8357 31.7148 66.5244C31.8719 66.2131 31.741 65.9278 31.5314 65.6943C31.3219 65.4608 31.0862 65.2792 30.8242 65.0976C30.798 65.0717 30.7719 65.0458 30.7457 65.0458C30.7195 65.0198 30.7195 65.0198 30.6933 65.0198C30.6147 64.9679 30.5099 64.942 30.4313 64.8901L30.4052 64.8642C30.4052 64.8642 30.4313 64.8642 30.4575 64.8642C30.5361 64.9161 30.6409 64.942 30.7195 64.9939C30.7457 64.9939 30.7719 65.0198 30.798 65.0198C30.8766 65.0458 30.929 65.0717 31.0076 65.0976C31.2957 65.1495 31.5838 65.1495 31.7148 64.8642C31.8719 64.5529 31.7148 64.3194 31.5314 64.0859C31.2957 63.8006 31.0076 63.5671 30.6933 63.3596C30.3528 63.1261 30.1956 62.8148 30.2218 62.3998C30.2218 61.7513 30.2218 61.1287 30.2218 60.4801C30.2218 59.8835 30.4575 59.7019 31.0076 59.9354C32.3172 60.5061 33.5745 61.0508 34.6222 62.1663C36.1414 63.7747 37.6605 65.383 39.0487 67.0951C39.1273 67.1989 39.3107 67.3026 39.3107 67.4323C39.3369 67.7436 39.4154 68.029 39.5726 68.2365C39.625 68.3143 39.6774 68.3662 39.7036 68.444C40.1226 68.9629 40.7251 69.326 41.0132 69.9227C41.4585 70.8825 42.0871 71.7645 42.611 72.7243C43.1348 73.6582 43.6325 74.618 44.2087 75.5259C45.0469 76.8489 45.9374 78.0941 47.0375 79.2095C47.2209 79.4171 47.4042 79.5987 47.3518 79.91C47.3256 80.1175 47.4304 80.2991 47.5614 80.4807C49.8925 83.6455 51.726 87.0697 53.4023 90.5976C53.5333 90.8571 53.6381 91.1165 53.8214 91.3499C53.8476 91.4018 53.9 91.4537 53.9262 91.4796C53.9524 91.5056 53.9786 91.5315 54.0048 91.5315C54.031 91.5575 54.0834 91.5834 54.1095 91.5834H54.1357H54.1619C54.4762 91.4796 54.6334 91.2202 54.7382 90.9349C54.7382 90.9089 54.7382 90.883 54.7382 90.883C54.7382 90.8571 54.7382 90.8571 54.712 90.8311C54.6334 90.7014 54.4762 90.6755 54.4239 90.5458C54.1095 89.6897 53.6643 88.8855 53.2452 88.1073C52.6951 87.0956 52.1451 86.0839 51.6212 85.0463C51.0188 83.827 50.2068 82.7116 49.4211 81.5961C49.1591 81.2329 48.8972 80.8698 48.6091 80.4547C49.0544 80.2212 49.4996 80.0397 49.8139 79.6505C49.9973 79.443 50.1806 79.2355 50.0759 78.9501C50.0235 78.7945 50.1283 78.6648 50.1806 78.5351C51.2545 75.6556 52.1451 72.7243 52.6689 69.6892C53.2452 66.3428 53.3238 62.9705 52.9047 59.5722C52.4594 55.8626 51.5427 52.2309 50.233 48.7289C50.1544 48.5213 50.0235 48.3398 50.0497 48.0544C50.364 48.0025 50.6783 48.1841 51.0712 48.0285C50.495 47.5096 49.8401 47.2243 49.1591 46.9908C47.4304 46.3942 45.6493 45.9791 43.8682 45.59C41.8776 45.149 39.8345 44.9415 37.8439 44.4746C37.2153 44.3448 36.5866 44.1373 35.958 44.0076C35.6699 43.9557 35.5389 43.826 35.5389 43.5147C35.5651 42.4771 35.6961 41.4654 36.0366 40.4796C36.1937 40.0127 36.4819 39.6236 36.7962 39.2864C37.2414 38.7935 37.7915 38.5341 38.4463 38.5341C38.9964 38.5341 39.5726 38.56 40.1226 38.6378C40.3846 38.6897 40.5679 38.7675 40.6989 39.0269C40.856 39.3382 41.0132 39.7792 41.4061 39.883C41.4847 39.9089 41.5109 39.8052 41.5894 39.8052C41.668 39.8052 41.8252 40.0646 41.9823 40.2202C42.0347 40.2721 42.0609 40.324 42.1133 40.324C42.1919 40.3499 42.2443 40.324 42.2704 40.324C42.3228 40.324 42.349 40.1683 42.4014 40.1943C42.5586 40.2721 42.6895 40.5575 42.8467 40.6872C43.0562 40.8688 43.292 40.7131 43.292 40.6093C43.2658 40.3759 43.3705 40.4537 43.4491 40.5056C43.5277 40.5834 43.6325 40.4796 43.6587 40.4537C43.6587 40.4018 43.6063 40.1424 43.6325 40.1943C43.6325 40.2202 43.7634 40.4278 43.842 40.4537C43.9206 40.4796 44.0777 40.3759 43.973 40.1424C43.7634 39.6236 43.5277 39.1307 43.292 38.6378C42.7419 37.5742 42.349 36.4847 41.9823 35.3693C41.7204 34.5651 41.3799 33.7869 41.0656 33.0086C40.9608 32.7752 40.987 32.6714 41.2489 32.5417C41.9823 32.2045 42.2966 31.5819 42.349 30.8036C42.3752 30.5442 42.2966 30.4664 42.1395 30.4405L40.0441 30.3627C40.0441 30.3627 39.9131 29.8438 39.8869 28.91C39.7821 27.8723 39.8607 26.8606 40.1488 25.823C40.306 25.2782 40.5155 24.7853 40.7513 24.2406C40.175 23.9812 39.7559 24.3962 39.2583 24.5C39.1797 24.3703 39.2845 24.3184 39.3369 24.2406C39.4416 24.033 39.3631 23.9293 39.1273 23.9033C38.8916 23.8774 38.682 24.033 38.4725 24.059C38.3677 23.618 38.2368 23.5402 37.8701 23.7218C37.6343 23.8515 37.4248 24.0071 37.2153 24.1628C37.1629 24.1887 37.0843 24.2146 37.0319 24.2406C37.0057 24.1109 37.0057 24.0071 37.0581 23.8774C37.0319 23.7218 36.9271 23.5921 36.77 23.6958C36.5604 23.8255 36.3509 23.9293 36.2199 24.1628C36.1675 24.1368 36.089 24.1368 36.0628 24.1109C35.8008 23.7477 35.8008 23.7477 35.5651 24.1109C35.3294 24.059 35.3818 23.8774 35.3556 23.7218C35.3294 23.6439 35.3032 23.5661 35.1984 23.5402C35.0675 23.5142 35.0151 23.5921 34.9889 23.6958C34.9627 23.7996 34.9365 23.9293 34.8055 24.033C34.7008 23.8255 34.8317 23.5921 34.7269 23.4364C34.4388 23.3067 34.3864 23.7477 34.1245 23.6439C34.2031 23.3586 34.0983 23.2548 33.8364 23.3586C33.7316 23.3845 33.6269 23.4623 33.5221 23.5402C33.4435 23.5142 33.4173 23.4623 33.3911 23.4105C33.1816 23.177 33.1292 23.177 32.8935 23.3326C32.6577 23.4883 32.5268 23.7477 32.3172 23.9552C32.1601 23.7218 32.3172 23.5142 32.2648 23.3326C32.2125 23.0992 32.0815 23.0992 31.9243 23.2808C31.7672 23.4105 31.6624 23.5661 31.61 23.7477C31.5314 23.6958 31.5314 23.618 31.4791 23.5402C31.4005 23.4105 31.5052 23.177 31.2695 23.1511C31.06 23.1251 31.0338 23.3326 30.929 23.4623C30.9028 23.5142 30.9028 23.5661 30.8766 23.6439C30.6933 23.7996 30.7195 24.059 30.5623 24.2406C30.379 24.1628 30.4575 23.9812 30.4575 23.8774C30.4575 19.7787 30.4575 15.6541 30.4575 11.5554C30.4575 11.3738 30.4837 11.1923 30.379 11.0107C30.3004 10.1546 30.0646 9.3245 29.8813 8.46845C29.3574 6.10782 28.9122 3.69531 28.2574 1.36062C28.205 1.17903 28.1526 0.997443 28.1002 0.841797C27.8907 0.893679 27.9168 1.04932 27.8907 1.17903C27.2882 3.38401 27.0001 5.66682 26.5286 7.89775C26.3191 8.90945 26.1881 9.92115 25.9262 10.9069C25.6905 11.1663 25.7429 11.4776 25.7429 11.7889C25.7429 11.8667 25.7429 11.9186 25.7429 11.9964V12.0224C25.7429 12.2299 25.7429 12.4374 25.7429 12.6709V12.6968C25.7429 13.1638 25.769 13.6307 25.7429 14.0976C25.7429 14.3571 25.7167 14.6165 25.6643 14.8759C25.6643 14.8759 25.6643 14.9018 25.6381 14.9018C25.6119 14.9537 25.5857 14.9796 25.5595 15.0315C25.5595 15.0315 25.5595 15.0575 25.5333 15.0575C25.5333 15.0834 25.5333 15.0834 25.5333 15.0834C25.4547 15.3688 25.4809 15.6541 25.5857 15.9135C25.5857 15.9395 25.6119 15.9654 25.6119 16.0173C25.6119 16.0432 25.6381 16.0692 25.6381 16.0692C25.6381 16.0951 25.6643 16.0951 25.6643 16.121C25.7429 16.8474 25.7429 17.5997 25.7429 18.326C25.7429 18.8448 25.7167 19.3896 25.7429 19.9084C25.7429 20.2975 25.7429 20.6607 25.7429 21.0498C25.7429 21.3871 25.769 21.7243 25.7167 22.0615C25.7167 23.0473 25.7167 24.033 25.7167 25.0188C25.7429 25.2263 25.7429 25.4339 25.7429 25.6414L25.8476 26.9384C25.8738 26.9903 25.8738 27.0422 25.9 27.12C25.9524 27.6388 26.2667 27.9242 26.9215 28.0539C26.9215 27.7167 26.9215 27.3794 26.9215 27.0681C26.9215 26.8087 27.0525 26.7569 27.262 26.7569C27.524 26.7309 27.6025 26.8606 27.5763 27.0681C27.5763 27.146 27.5763 27.2238 27.5763 27.3276C27.5501 31.6338 27.5501 35.94 27.524 40.2462C27.524 40.4018 27.5763 40.5834 27.4192 40.739C27.0525 40.7131 26.6596 40.7131 26.2667 40.6612C25.0095 40.5315 23.7784 40.4537 22.5473 40.739C21.9973 40.8688 21.4734 41.0503 20.9234 41.206C18.6184 41.8286 16.6278 43.0737 14.7419 44.4746C13.118 45.6938 11.625 47.0687 10.263 48.5732C8.84856 50.1297 7.59131 51.7899 6.49122 53.5539C6.17691 54.0468 5.91498 54.5656 5.73163 55.1104C5.23397 56.6409 4.65773 58.1455 4.31722 59.7279C4.23865 60.091 4.10768 60.117 3.76718 60.091C3.03378 60.0132 2.40516 60.2726 1.69795 60.6877V60.7136C1.69795 60.7396 1.69795 60.7655 1.72415 60.7655C1.77653 60.8693 1.9075 60.8952 2.03846 60.9211C2.40516 60.999 2.77186 60.999 3.16475 61.0249C3.76718 61.0508 3.81956 61.1287 3.76718 61.6994C3.61002 63.178 3.50525 64.6567 3.29571 66.1093C3.26952 66.3688 3.3219 66.6541 3.37429 66.9135C3.47906 67.3804 3.74099 67.562 4.21245 67.588C5.88879 67.6399 7.53893 67.4842 9.18907 67.4064C10.4725 67.3286 11.756 67.2767 13.0394 67.0692C13.3799 67.0173 13.4323 67.1729 13.4323 67.4842C13.4323 68.3403 12.9608 69.0147 12.6203 69.7411C11.0487 73.0615 9.47719 76.382 7.93182 79.7284C6.83172 82.0371 5.75782 84.3718 4.71011 86.7065C4.47438 87.2253 4.21245 87.7441 3.84576 88.2111C3.3219 88.9115 3.05997 89.7675 2.71947 90.5458C2.43135 91.1943 2.32658 91.2202 1.85511 90.6495C1.61938 90.3382 1.43603 90.001 1.06933 89.7675C1.01694 89.7416 0.938366 89.7157 0.885981 89.6897C0.859788 89.6897 0.859788 89.6897 0.833595 89.6897C0.78121 89.6897 0.728825 89.7157 0.676439 89.7935C0.676439 89.7935 0.676439 89.7935 0.676439 89.8194C0.440705 90.3642 0.676439 90.5976 0.885981 90.8571ZM27.3406 50.9079C27.1573 50.9339 27.0525 50.882 26.9215 50.8301C25.8214 50.3891 24.7213 49.9481 23.6212 49.5071C23.4379 49.4293 23.2284 49.3515 23.0188 49.3255C22.7831 49.2736 22.5473 49.3515 22.4688 49.6109C22.3902 49.8703 22.495 50.0519 22.7307 50.1816C22.8617 50.2594 22.9926 50.3113 23.1236 50.3632C24.3284 50.856 25.5071 51.323 26.712 51.8159C27.1311 51.9974 27.2096 52.1271 27.1049 52.5681C27.0787 52.7497 27.0001 52.8276 26.8168 52.7497C26.5548 52.646 26.2667 52.5422 25.9786 52.4903C25.6905 52.4125 25.4809 52.6719 25.6119 52.9313C25.6905 53.087 25.8214 53.1907 25.9262 53.3204C26.1096 53.5539 26.3715 53.6836 26.5548 53.9949C26.3453 53.969 26.2405 53.943 26.1096 53.943C25.9 53.943 25.6643 53.969 25.5857 54.2024C25.5071 54.4359 25.6119 54.6175 25.7952 54.7472C25.9786 54.9028 26.1619 55.0325 26.3453 55.1622C26.2405 55.2919 26.0834 55.2401 25.9786 55.266C25.5333 55.5514 25.5071 55.707 25.8214 56.0702C26.1881 56.4852 26.6334 56.7965 27.0525 57.1338C27.2882 57.3153 27.6025 57.471 27.262 57.8601C27.1835 57.9639 27.2358 58.1714 27.2358 58.353C27.2358 58.8459 27.262 59.3387 27.262 59.8316C27.2358 60.7396 27.0525 61.6216 26.9739 62.5035C26.4762 62.4776 26.031 62.4517 25.6119 62.3998C23.4117 62.1663 21.2377 61.9069 19.0375 61.7253C16.7326 61.5178 14.4276 61.3621 12.1226 61.2324C10.2892 61.1287 8.48186 60.8952 6.67457 60.6617C6.15071 60.5839 5.60067 60.6358 5.07681 60.4023C5.4697 58.6124 5.99356 56.8743 6.72695 55.2141C7.61751 53.2426 8.90095 51.5046 10.3939 49.9481C10.7868 49.533 11.2059 49.118 11.5726 48.6511C11.9393 48.2101 12.306 47.8209 12.7513 47.4578C14.2443 46.1607 15.8158 44.9415 17.5183 43.8779C19.1685 42.8662 20.9234 42.1658 22.7831 41.6989C24.3023 41.3097 25.8214 41.621 27.3406 41.4913V50.9079ZM26.7644 25.7452C26.7644 25.2523 26.7644 24.7594 26.7644 24.2665C26.7906 21.4389 26.7644 18.6373 26.8168 15.8098C26.8429 14.4868 26.8168 13.1897 26.7906 11.8408C27.0001 11.7889 27.2358 11.737 27.4978 11.6851C27.3668 13.501 27.5763 15.2909 27.4716 17.0809C27.393 18.5595 27.4454 20.0381 27.4192 21.5168C27.4192 22.9176 27.393 24.3184 27.393 25.7192C27.393 26.0305 27.2882 26.1083 27.0001 26.1083C26.7382 26.1343 26.7644 25.9527 26.7644 25.7452ZM29.3313 11.5035C28.9384 11.6073 28.5979 11.5554 28.3097 11.2701C28.205 11.1404 28.1002 11.0107 27.943 10.8291C27.7073 11.4257 27.262 11.6073 26.712 11.5554C26.2929 11.5295 26.1096 11.296 26.1881 10.881C26.5548 8.93539 26.9215 6.98981 27.2882 5.04424C27.3668 4.70701 27.7335 4.4476 28.074 4.5773C28.2835 4.62918 28.5193 4.62918 28.5979 4.96642C28.9907 6.86011 29.436 8.7538 29.8289 10.6475C29.9599 11.0626 29.7503 11.3998 29.3313 11.5035ZM28.5193 19.0005C28.5193 16.7436 28.5193 14.4608 28.5193 12.204C28.5193 11.7111 28.6241 11.6592 29.1217 11.7889C29.3574 11.8667 29.3051 12.0224 29.3051 12.178C29.3051 16.6917 29.3051 21.2055 29.3051 25.7192C29.3051 26.1343 29.2789 26.1343 28.886 26.1083C28.4931 26.0824 28.4931 26.0824 28.4931 25.6154C28.4931 23.4105 28.4931 21.2055 28.4931 19.0005H28.5193ZM29.3051 27.8204V51.7121C28.3621 51.4527 28.3621 51.4527 28.3621 50.5966C28.3621 46.5498 28.3883 42.503 28.3883 38.4822C28.4145 34.8245 28.4145 31.1409 28.4407 27.4832C28.4407 26.9125 28.4407 26.9384 28.886 26.9125C29.2003 26.9125 29.3051 27.0422 29.2789 27.3276C29.2789 27.4832 29.3051 27.6388 29.3051 27.8204ZM29.6718 53.061C29.3574 53.7095 28.9122 53.5798 28.4407 53.3204C28.3097 53.2426 28.1788 53.2167 28.0216 53.1648C27.7597 53.087 27.7073 52.9313 27.7859 52.6978C27.8383 52.5941 27.8121 52.4384 27.9168 52.3347C28.5455 52.5681 29.1479 52.7757 29.6718 53.061ZM40.3322 31.2446C40.2536 31.2446 40.0965 31.0371 40.2012 31.0371C40.6203 31.0371 41.2751 31.0371 41.7466 31.0371C41.6942 31.2446 40.9608 31.2446 40.3322 31.2446ZM40.7251 32.4379C40.5941 32.1526 40.4108 31.8413 40.3584 31.53C40.9084 31.53 41.2751 31.4781 41.668 31.3484C41.4585 31.8153 41.118 32.2045 40.7251 32.4379ZM34.8841 41.1541C34.7531 41.8805 34.6484 42.6068 34.7008 43.3591C34.7269 43.8001 34.6746 43.826 34.2293 43.7223C33.7578 43.6185 33.3125 43.4888 32.8411 43.385C31.8458 43.1516 32.0291 43.2034 31.8719 44.0076C31.5838 45.6419 31.1124 47.1984 30.5361 48.7548C30.5099 48.8326 30.4837 48.9105 30.3266 48.8845V48.3398C30.3266 43.7482 30.3266 39.1567 30.3266 34.5651C30.3266 33.8128 30.3266 33.0346 30.3266 32.2823C30.3266 32.0748 30.248 31.8153 30.4313 31.7116C30.6409 31.5819 30.8504 31.8153 31.0338 31.9191C31.8196 32.412 32.3434 33.1643 32.7363 33.9944C32.8935 34.0722 32.7625 34.4354 33.0506 34.3576C33.234 34.3057 33.2078 34.0982 33.234 33.9425C33.2602 33.6572 33.2602 33.3718 33.2602 33.0865C33.2602 32.1785 33.2602 31.2706 33.2602 30.3627C33.2602 29.7141 33.2602 29.0397 33.1554 28.3911C33.103 28.028 33.0768 27.6648 33.0506 27.3016C33.1554 27.3016 33.234 27.3016 33.2864 27.3016C35.2508 27.6129 37.1105 28.2874 38.944 28.9878C39.0749 29.0397 39.1535 29.1175 39.1797 29.2472C39.2321 29.6363 39.3107 30.0514 39.3892 30.4924C38.682 30.4145 34.4912 29.766 33.8102 29.6622C33.4959 29.6104 33.4435 29.7141 33.5221 29.9995C33.5483 30.1032 34.0197 30.7258 34.2031 30.9334C34.7531 31.6078 35.3294 32.2563 36.1675 32.6195C37.32 33.1383 38.9178 32.8789 39.494 31.4003C39.5202 31.3484 39.494 31.2446 39.625 31.2446C40.0703 32.386 40.4893 33.5015 40.9346 34.6429C40.9608 34.7207 41.0132 34.7986 40.9608 34.8764C40.7251 35.3174 40.5417 35.8103 40.0441 36.0956C39.625 36.3291 39.1797 36.381 38.7344 36.2253C38.3415 36.0956 38.0272 35.8621 38.0272 35.3952C38.0272 35.2914 37.9487 35.2396 37.8701 35.2396C37.7915 35.2396 37.7129 35.2655 37.6605 35.3433C37.5558 35.5249 37.5296 35.7324 37.6081 35.94C37.7915 36.4328 38.132 36.7182 38.6297 36.8479C39.5464 37.1073 40.306 36.8479 40.9608 36.1734C41.0918 36.0437 41.118 35.8362 41.3537 35.7843C41.4585 36.0956 41.5632 36.4069 41.668 36.7182C41.6942 36.796 41.7204 36.8738 41.7466 36.9517C41.8776 37.237 42.1919 37.8337 42.1395 37.8596C42.0609 37.9115 41.9561 37.5742 41.799 37.3667C41.7204 37.263 41.6156 37.263 41.537 37.3927C41.4847 37.5224 41.7728 37.9374 41.6942 37.9893C41.6156 38.0412 41.5371 37.8337 41.4323 37.678C41.3799 37.6002 41.1965 37.6002 41.1442 37.6521C41.0394 37.7818 41.2227 37.9634 41.118 37.9634C39.9917 37.8337 38.4201 37.9115 37.32 38.1709C36.9009 38.2747 36.5342 38.4822 36.1675 38.7675C35.3818 39.3642 35.0675 40.2202 34.8841 41.1541ZM36.0104 30.9852C36.089 30.9852 36.1414 31.0112 36.2199 31.0112C36.2461 31.0112 36.2461 30.9852 36.2723 30.9852C36.4819 31.0371 36.6652 31.0631 36.8748 31.1149C37.6867 31.2706 38.5249 31.4003 38.7344 31.4003L38.7606 31.4262C38.5773 31.8413 38.263 32.0229 37.8439 32.1526C37.2676 32.3082 36.639 32.2045 36.1414 31.9191C35.6961 31.6597 34.5436 30.7518 34.4126 30.5442C34.4126 30.5442 34.4126 30.5183 34.4388 30.5183C34.8841 30.6221 35.4603 30.7777 36.1152 30.9334C36.0366 30.9593 36.0366 30.9852 36.0104 30.9852ZM34.2031 30.2589C34.2555 30.2329 38.8916 30.9074 38.9702 30.9074C38.9702 30.9593 38.8916 31.089 38.8916 31.1409C38.813 31.1149 38.8392 31.2446 37.5558 30.9852C36.9795 30.8815 35.6699 30.648 34.8841 30.4664C34.3864 30.3627 34.2293 30.2589 34.2031 30.2589ZM47.1685 47.4837C46.9589 47.4578 46.7756 47.4578 46.6184 47.4318C44.7849 47.1984 42.9515 46.9649 41.118 46.7314C39.1535 46.4979 37.2153 46.2385 35.2508 46.031C34.8055 45.9791 34.3341 45.7716 33.8626 45.9791C33.2864 47.1465 32.9458 48.3916 32.4744 49.5849C32.0815 50.5966 31.741 51.6343 31.3481 52.646C31.2171 52.5941 31.0862 52.5422 30.9552 52.4644C30.4052 52.2309 30.4313 52.2309 30.4837 51.6343C30.5623 50.8042 30.8242 50.0259 31.1124 49.2477C31.5314 48.1582 31.9505 47.0687 32.1601 45.9013C32.2648 45.2787 32.3958 44.6821 32.5006 44.0854C33.1816 44.1633 33.8102 44.2151 34.4388 44.4227C34.6746 44.5005 34.9103 44.5264 35.0413 44.7858C35.1198 44.9415 35.3032 45.0453 35.4603 44.9415C35.7485 44.734 36.0104 44.8637 36.2985 44.9155C37.9225 45.3047 39.5202 45.6938 41.1704 45.9791C42.9776 46.2904 44.8111 46.6536 46.5922 47.0687C46.828 47.1465 47.0375 47.1984 47.1685 47.4837ZM40.175 60.8693C40.1488 60.999 40.1488 61.1546 40.1488 61.3103C40.1226 61.4918 40.2012 61.6734 40.0965 61.8031C39.9917 61.855 39.9393 61.8031 39.9131 61.7772C37.4248 59.9873 34.9365 58.1714 32.4482 56.3815C32.3434 56.3036 32.1863 56.2258 32.1601 56.0702C31.9505 55.3179 31.741 54.5915 31.5314 53.8133C31.7934 53.8133 31.9505 53.943 32.1601 53.9949C32.422 54.0468 32.6577 54.0208 32.7887 53.7355C32.8935 53.4501 32.7887 53.2426 32.5268 53.1129C32.2386 52.9832 31.9505 52.8794 31.6624 52.7497C32.3958 50.7004 33.1554 48.6511 33.8888 46.6017C33.9674 46.3942 33.9936 46.1867 34.2555 46.1867C35.3556 46.3682 36.4295 46.472 37.5296 46.6017C41.1442 47.0427 44.7326 47.4837 48.3472 47.8988C48.871 47.9506 49.0805 48.1841 49.2377 48.6251C50.5211 52.179 51.4641 55.8108 51.8832 59.5982C52.2237 62.6333 52.1975 65.6943 51.8046 68.7294C51.4117 71.7385 50.5211 74.6439 49.6044 77.5234C49.4734 77.9644 49.3425 78.4054 48.9496 78.7167C48.871 78.7945 48.8186 78.8723 48.8186 78.9761C48.871 79.3133 48.6091 79.3911 48.3472 79.469C48.321 79.1317 48.1114 78.9242 47.8495 78.7167C47.4304 78.3794 47.0637 77.9903 46.7232 77.5493C45.7541 76.3042 44.9421 74.9552 44.2087 73.5804C43.1348 71.5829 42.0085 69.5854 40.7251 67.7436C40.5417 67.4842 40.4632 67.2507 40.5941 66.9395C40.8822 66.2909 40.9608 65.5905 40.9608 64.8901C40.9608 64.4232 40.9608 63.9562 40.9608 63.5152C41.118 63.4634 41.1704 63.5152 41.2227 63.5671C42.6895 64.7864 44.2087 65.9278 45.6493 67.1989C45.7279 67.2767 45.8588 67.3804 45.885 67.4842C45.9374 67.7436 46.1208 67.8733 46.3303 67.9511C47.0899 68.3143 47.7185 68.8591 48.321 69.4038C48.8448 69.8708 49.3949 70.3377 49.9187 70.7787C50.0235 70.8825 50.1283 70.9603 50.3116 70.9603C50.4164 70.9603 50.5211 70.9603 50.5735 70.8306C50.5997 70.7528 50.5735 70.649 50.5211 70.5971C50.4426 70.5193 50.364 70.4674 50.2854 70.3896C49.9187 69.9746 49.3949 69.7151 49.0805 69.2482C49.2901 69.1444 49.4472 69.326 49.6306 69.326C49.8139 69.326 49.9711 69.326 50.0497 69.1185C50.1283 68.9369 49.9973 68.8072 49.8139 68.7294C49.1067 68.47 48.4257 68.0549 47.6923 67.8474C47.3256 67.7436 47.0113 67.562 46.7232 67.3286C44.8897 65.7721 43.03 64.2416 41.1442 62.763C40.9346 62.6073 40.8037 62.4257 40.8037 62.1404C40.8037 61.8291 40.8037 61.5178 40.7775 61.2065C40.7775 61.0508 40.7775 60.9211 40.7251 60.7914C40.6465 60.6617 40.5679 60.558 40.3846 60.558C40.2798 60.6099 40.2012 60.7396 40.175 60.8693ZM36.3509 62.296C36.6914 61.6994 36.7962 61.0508 36.7438 60.2467C37.9225 61.0508 38.9964 61.7772 39.9917 62.6073C40.0703 62.6851 40.1226 62.763 40.1488 62.8667C40.2012 63.8525 40.3584 64.8382 40.2536 65.824C40.2274 66.0834 40.2274 66.3428 39.9917 66.5763C38.813 65.2273 37.6867 63.8784 36.4033 62.6592C36.2723 62.5554 36.2723 62.4517 36.3509 62.296ZM29.9861 59.0534C29.7765 58.9496 29.6718 58.6124 29.4622 58.4049C28.9122 57.7823 28.2835 57.2375 27.6025 56.7446C27.6025 56.5112 27.7073 56.5371 27.8645 56.6149C28.1526 56.7446 28.4669 56.9003 28.755 57.03C29.0169 57.1338 29.3574 57.2635 29.5408 56.9262C29.7241 56.589 29.436 56.3815 29.2003 56.2258C28.8074 55.9145 28.3883 55.6551 27.9954 55.3957C27.943 55.3179 27.8121 55.3438 27.7597 55.266L27.7335 55.2401C27.7335 55.2141 27.7335 55.1882 27.7597 55.1622C27.9692 55.1622 28.1788 55.1622 28.2574 54.9028C28.3359 54.6694 28.1788 54.5137 28.0216 54.384C27.8121 54.2024 27.6025 53.9949 27.393 53.8133C27.3668 53.6836 27.393 53.6317 27.5501 53.6577C27.7597 53.7355 27.9954 53.7874 28.1788 53.8911C28.9384 54.2803 29.7765 54.41 30.6147 54.41C30.5361 54.1505 30.1694 54.2024 30.0646 53.969C30.6933 53.7095 30.7195 53.7095 30.9028 54.3062C30.9028 54.3321 30.9028 54.384 30.9028 54.4359C31.0862 54.6953 31.1124 55.0066 31.1909 55.2919C31.2433 55.4216 31.2171 55.4995 31.0862 55.5773C30.7195 55.8627 30.7195 56.0183 31.0862 56.2777C32.422 57.2375 33.7578 58.1714 35.0936 59.1053C35.8008 59.5982 35.8532 59.5722 35.958 60.3504C36.0366 60.8952 36.0366 61.4659 35.7485 61.9847C35.1722 61.5697 34.727 61.0508 34.2555 60.532C34.0459 60.2726 33.8102 60.0132 33.4435 59.9873C32.8149 59.9613 32.291 59.65 31.7672 59.3647C31.4791 59.209 31.1909 59.0534 30.8504 59.0534C30.5623 59.0275 30.2218 59.1572 29.9861 59.0534ZM28.4669 62.6333C27.6025 62.5554 27.7335 62.5814 27.7597 61.9328C27.7597 61.7253 27.7859 61.5178 27.8121 61.3103C28.0216 60.3245 28.0216 59.3128 27.9692 58.3011C27.9692 58.1973 27.8907 58.0417 28.074 57.9898C28.4669 58.327 28.8336 58.6643 29.2265 59.0015C29.3313 59.1053 29.436 59.1572 29.4098 59.3647C29.2789 60.0651 29.3836 60.7655 29.3574 61.4659C29.3313 61.7513 29.3574 62.0625 29.3574 62.3738C29.0169 62.322 28.8598 61.9588 28.5455 62.1404C28.3097 62.2701 28.4407 62.4517 28.4669 62.6333ZM26.9477 71.1678C26.9739 70.5712 27.0001 69.9745 27.0263 69.3779C27.0787 68.3921 27.1049 67.4323 27.0525 66.3428C27.6811 66.706 28.205 67.0432 28.7288 67.3286C28.9907 67.4842 29.0955 67.6399 29.0955 67.9511C29.0955 68.8072 28.9907 69.6373 28.9384 70.4674C28.886 71.2457 28.8074 71.9979 28.7288 72.8799C28.1526 72.3871 27.6287 71.9461 27.0525 71.5829C26.8953 71.5051 26.9215 71.3494 26.9477 71.1678ZM20.059 62.6333C20.1114 62.6073 20.1376 62.6073 20.1376 62.6073C23.1498 62.8148 26.1357 63.2299 29.1479 63.2818C29.3836 63.2818 29.567 63.4115 29.7503 63.5671C29.8027 63.5931 29.8289 63.619 29.8551 63.6709C29.9075 63.6968 29.9599 63.7228 29.9861 63.7747C30.0123 63.9044 29.9861 63.9562 29.8289 63.9044C29.8027 63.9044 29.7503 63.9044 29.7241 63.8784C29.6718 63.8525 29.6194 63.8006 29.567 63.8006C29.0431 63.6968 28.5193 63.4634 27.8907 63.6709C28.2312 64.0081 28.5455 64.2935 28.8336 64.5529C28.9122 64.5529 28.9384 64.5788 28.9384 64.6566C29.0169 64.6566 29.0431 64.7085 29.0693 64.7604C29.1479 64.7604 29.1741 64.7864 29.2003 64.8642C29.1741 64.942 29.0955 64.9939 29.0169 65.0458C28.9384 65.0198 28.8336 64.9939 28.8074 64.8901C28.7026 64.8901 28.6241 64.8382 28.5717 64.7604H28.5979C28.2835 64.7604 27.943 64.6826 27.6287 64.7864C27.6025 65.0717 27.8121 65.1495 27.9954 65.3052C28.5193 65.7202 29.0955 66.0834 29.5146 66.6022C29.5146 66.8098 29.4098 66.8616 29.2265 66.7579C28.755 66.4725 28.3097 66.2131 27.8383 65.9278C26.6858 65.2014 25.4285 64.6566 24.1189 64.2156C23.8046 64.1119 23.4903 64.0859 23.3331 63.6968C23.2807 63.5412 23.0712 63.5152 22.8878 63.5152C22.7045 63.5152 22.5212 63.5671 22.3378 63.5931C21.552 63.7228 20.7662 63.8525 19.9805 64.1638C20.0328 63.619 20.0067 63.1261 20.059 62.6333ZM14.5586 65.383C14.6633 64.6826 14.7681 64.0081 14.8729 63.3077C14.9253 62.9705 14.8467 62.5295 15.1086 62.322C15.3444 62.1144 15.7372 62.296 16.0777 62.322C17.0469 62.3738 18.016 62.4517 19.0113 62.5035C19.2994 62.5295 19.4304 62.6073 19.4042 62.9186C19.378 63.2818 19.378 63.6709 19.4042 64.0341C19.4304 64.3454 19.3256 64.501 19.0113 64.6048C18.1208 64.9161 17.204 65.2014 16.2611 65.4349C15.7111 65.5646 15.161 65.7721 14.5586 65.824C14.5062 65.6424 14.5586 65.5127 14.5586 65.383ZM13.2227 66.1612C12.5417 66.239 11.8607 66.3428 11.1797 66.4466C10.3677 66.5503 9.55577 66.5503 8.74379 66.6022C7.35558 66.706 5.96736 66.7319 4.57915 66.7838C4.29103 66.8097 4.23865 66.68 4.26484 66.4206C4.422 65.0717 4.55296 63.7228 4.68392 62.3738C4.81489 61.1806 4.57915 61.2324 6.01975 61.3881C7.77466 61.5697 9.52957 61.7513 11.2845 61.9588C12.2798 62.0885 13.2751 62.0107 14.3228 62.1923C14.1133 63.3596 13.9299 64.501 13.7466 65.6424C13.6942 65.9278 13.5632 66.1093 13.2227 66.1612Z" fill="#F3C96A"/>
<path d="M35.6174 28.884C36.7961 28.9618 37.2152 29.6622 37.8176 29.7141C37.8962 29.7141 37.9224 29.8179 37.87 29.8438C37.6081 30.0514 36.927 30.207 36.4818 29.8957C35.9579 29.5585 35.5912 29.325 34.9102 29.1434C34.8578 29.1175 34.8316 29.0397 34.884 29.0137C35.0412 28.8321 35.3817 28.8581 35.6174 28.884Z" fill="#F3C96A"/>
<path d="M40.6467 30.4664C40.0704 30.4664 39.9395 29.9735 39.9395 29.9735C39.9395 29.9735 40.2276 30.0513 40.7252 29.8957C41.2229 29.766 41.4586 29.0915 41.4586 29.0915C41.4586 29.0915 41.6682 28.9099 41.6944 29.2731C41.7206 29.6882 41.2229 30.4664 40.6467 30.4664Z" fill="#F3C96A"/>
</svg>
